PathFileType	4	(X/Y/Z)	C:\Users\WrightLab\Desktop\Jo\P4V16.trc
DataRate	CameraRate	NumFrames	NumMarkers	Units	OrigDataRate	OrigDataStartFrame	OrigNumFrames
100.00	100.00	       46	19	mm	100.00	1	       525
Frame#	Time	Headset_Front			Headset_Back			Headset_Left			Headset_Right			Left_Shoulder			Right_Shoulder			Sternum			C7			Left Elbow			Right Elbow			Left Wrist			Right Wrist			Left ASIS			Right ASIS			S2			Left Knee			Right Knee			Left Ankle			Right Ankle			
		X1	Y1	Z1	X2	Y2	Z2	X3	Y3	Z3	X4	Y4	Z4	X5	Y5	Z5	X6	Y6	Z6	X7	Y7	Z7	X8	Y8	Z8	X9	Y9	Z9	X10	Y10	Z10	X11	Y11	Z11	X12	Y12	Z12	X13	Y13	Z13	X14	Y14	Z14	X15	Y15	Z15	X16	Y16	Z16	X17	Y17	Z17	X18	Y18	Z18	X19	Y19	Z19	

1	0.000				-426.30170	560.05914	-1428.48901																									46.12173	876.20123	-1328.64099	-463.59326	872.54413	-1452.86206										24.59938	504.34634	-1557.61829										
2	0.010				-429.49789	559.03693	-1426.47717																									36.01964	882.14691	-1307.23535	-467.32828	869.77850	-1453.71753										21.97338	505.06857	-1553.30811										
3	0.020				-435.98105	559.29932	-1426.45264																									24.62240	887.10065	-1291.18652	-472.39328	865.41357	-1460.74731										18.59399	504.72986	-1546.39270										
4	0.030				-440.97702	558.82520	-1419.93384																									14.22841	891.54510	-1277.04688	-478.27292	865.89478	-1456.74670										16.96834	503.50668	-1545.58618										
5	0.040				-447.87589	558.98480	-1415.24829																									3.79731	895.24323	-1261.02148	-483.51199	861.03400	-1458.66077										13.68713	504.32211	-1540.51318										
6	0.050				-452.47318	560.39996	-1409.55579																									-6.48789	900.00732	-1248.40149	-490.14804	858.00177	-1461.14014										10.72177	501.64362	-1541.41321										
7	0.060				-458.31857	560.52167	-1402.12927																									-16.89398	905.28918	-1235.50073	-494.23502	855.41309	-1463.89661										7.16036	502.10080	-1536.63831										
8	0.070				-463.91550	559.66931	-1397.84717																									-27.38763	909.95245	-1220.67102	-500.99362	853.07538	-1463.13354										4.61111	501.32916	-1532.76636										
9	0.080				-470.51303	559.38007	-1394.33960																									-37.98207	914.04523	-1207.73865	-506.26031	849.49921	-1472.09082										1.14868	501.37674	-1525.71912										
10	0.090				-475.66772	557.73669	-1390.08545																									-47.99667	918.56665	-1194.47998	-511.99258	846.52362	-1469.45752										-1.11975	500.12329	-1524.96912										
11	0.100				-482.56888	557.38080	-1385.48145																									-57.52295	923.44971	-1182.92712	-517.85284	843.21912	-1471.62476										-5.87141	498.42545	-1522.86499										
12	0.110				-487.73978	556.48340	-1381.49060																									-68.57893	928.36957	-1171.23767	-524.67145	840.69812	-1475.24890										-9.33731	496.86142	-1519.26123										
13	0.120				-495.61392	556.43445	-1376.11011																									-78.09464	932.18146	-1158.53809	-530.13849	837.74377	-1473.77686										-13.94423	498.93619	-1508.68665										
14	0.130				-500.90802	554.51648	-1371.16882																									-87.57230	937.19604	-1146.98499	-535.65411	834.58093	-1475.14795										-18.58997	497.77661	-1503.82166										
15	0.140				-508.00989	554.14441	-1366.50012																			44.54159	1148.36401	-1324.08508				-97.16528	940.51251	-1135.74634	-541.79333	830.64508	-1481.38501										-22.74457	494.97275	-1504.30872										
16	0.150				-514.11066	552.13287	-1360.38147																			37.06623	1148.98584	-1317.36218				-107.28931	944.02356	-1124.28650	-548.80432	829.81805	-1475.78174										-27.66544	495.88757	-1494.51318										
17	0.160				-519.85504	551.31915	-1354.61755																			30.13155	1147.77197	-1306.58496				-116.65701	947.26282	-1114.72046	-552.90607	826.47559	-1479.72986										-31.93369	495.64288	-1488.66150										
18	0.170				-526.90662	549.53894	-1348.62622																			22.70034	1148.56165	-1300.78333				-126.33482	950.76611	-1104.17627	-559.54169	824.13531	-1478.85681										-36.89304	492.99915	-1490.72144										
19	0.180				-532.57434	547.28516	-1342.76648																			14.90794	1147.46252	-1290.34656				-136.87733	954.12604	-1094.72449	-564.96838	821.32495	-1479.09900										-42.80937	493.65726	-1478.18616										
20	0.190				-540.61066	546.33551	-1337.81555																			6.68736	1148.24146	-1285.79590				-145.91127	955.65594	-1083.53247	-570.81158	818.53821	-1479.70630										-47.51229	493.29077	-1474.27319										
21	0.200				-545.02863	543.84344	-1332.96680																			-0.97705	1146.99451	-1275.76221				-154.59918	958.01678	-1073.91687	-575.58673	815.37292	-1482.48865	-108.13500	962.13507	-1344.47241	-433.26462	982.06549	-1413.01050				-52.85527	492.46729	-1472.01648										
22	0.210				-551.28192	540.34808	-1327.31104																			-9.04206	1147.07874	-1269.22058				-163.65366	959.42505	-1065.88257	-580.44690	812.35211	-1483.44226	-114.76270	961.92993	-1336.59827	-441.12012	982.78748	-1401.23755				-57.34690	492.38721	-1463.55457										
23	0.220				-557.07922	537.10126	-1322.09192																			-17.01693	1146.14026	-1260.49890				-173.52928	961.87292	-1057.58142	-586.18732	809.04504	-1490.71472	-124.55379	961.48016	-1330.76270	-448.77448	982.55859	-1395.44202				-63.62923	492.41907	-1459.09216										
24	0.230				-563.22650	535.58813	-1317.41528																			-25.67872	1146.55444	-1253.88904				-180.94438	962.52295	-1048.50769	-591.56830	808.44403	-1482.73633	-134.40450	960.37988	-1324.94263	-458.15869	981.45514	-1389.59595				-68.96471	492.08939	-1453.11279										
25	0.240				-569.55957	534.03693	-1312.69946																			-33.64359	1145.80566	-1246.56165				-189.76195	963.18066	-1041.61633	-598.08350	807.03180	-1484.63745	-141.96886	960.32452	-1317.60803	-467.13086	980.88092	-1386.54919				-74.92312	494.89087	-1442.87585										
26	0.250				-577.87878	533.12714	-1307.91724																			-41.73319	1146.45837	-1241.36243				-197.76411	962.95825	-1034.06018	-604.31946	806.70093	-1482.16272	-151.50359	959.90265	-1307.47107	-475.33447	981.90411	-1382.78394				-82.61237	493.17337	-1438.40881										
27	0.260				-584.45612	533.49274	-1303.58582																			-50.86541	1145.30029	-1231.36157				-206.28389	964.51489	-1026.24072	-609.82520	805.21661	-1478.25977	-161.37080	959.79016	-1300.66711	-483.46582	983.44312	-1375.84021				-89.66552	496.28207	-1421.02551										
28	0.270				-593.30841	533.94977	-1299.71899																			-61.74881	1146.14795	-1226.99463				-213.39133	964.43250	-1018.93732	-617.41486	804.38245	-1478.33118	-172.52080	959.87524	-1292.46570	-493.42047	986.92365	-1366.23315				-97.08400	495.87000	-1414.88123										
29	0.280				-602.82202	534.77295	-1296.87158																			-69.05727	1146.51892	-1219.95801				-221.80165	964.45685	-1013.31915	-622.39355	805.43109	-1474.31982	-183.17191	959.50970	-1285.05872	-502.49448	987.41461	-1362.64087				-104.19717	496.62131	-1403.93726										
30	0.290				-612.02112	535.12708	-1293.30884																			-78.73058	1146.97156	-1213.41577				-229.06325	964.31158	-1006.74036	-628.87878	805.47614	-1472.75281	-194.19385	961.67584	-1278.20703	-512.62939	989.45972	-1355.37085				-112.62103	497.64816	-1387.31543										
31	0.300				-621.51959	537.03296	-1290.74707																			-87.16925	1147.96960	-1208.24292				-235.22270	961.84381	-1001.80432	-637.43390	805.61346	-1466.56494	-204.80894	962.45557	-1267.68823	-521.27618	991.12793	-1351.99744				-121.29474	495.59668	-1378.09412										
32	0.310				-629.65924	536.48230	-1289.68738																			-96.41501	1148.66467	-1202.02661				-242.16803	961.14246	-996.58301	-642.31268	803.88660	-1467.73779	-214.45192	961.79236	-1261.42236	-531.34656	992.89795	-1347.12317				-131.16991	497.12778	-1355.06995										
33	0.320				-636.00128	535.12872	-1288.66589																			-105.11074	1149.32092	-1196.54492				-249.24838	961.19757	-990.62646	-651.32855	807.80280	-1458.31165	-223.96678	962.07904	-1254.17725	-540.66187	994.37921	-1342.89453				-141.29022	495.27789	-1343.45984										
34	0.330				-640.86951	533.40411	-1288.22839																			-114.30003	1150.66711	-1192.23291				-256.07108	959.06018	-986.78479	-658.75098	807.98230	-1455.32800	-233.96919	962.34125	-1244.07813	-550.86060	996.22156	-1338.93054				-153.32191	496.32144	-1317.82239										
35	0.340				-643.02515	531.19806	-1286.74060										-514.07574	1652.39722	-1276.87878							-122.95120	1151.61853	-1187.44312				-260.92920	956.79425	-982.93494	-665.19556	809.63745	-1446.86169	-244.08923	965.04968	-1237.63269	-559.51099	997.85309	-1334.65417				-163.60873	494.24304	-1299.31372										
36	0.350				-647.08246	530.02472	-1284.51563										-521.57251	1653.66248	-1270.38196							-130.96182	1152.38477	-1181.99902				-268.71652	955.37537	-978.06189	-672.32104	810.78503	-1442.10352	-253.96858	964.31506	-1231.35083	-568.35736	999.25024	-1330.48914				-176.34924	492.10635	-1281.82825										
37	0.360				-648.50037	529.15424	-1282.63757										-528.87952	1655.20813	-1263.67932							-139.24721	1152.32422	-1175.60010				-273.58301	952.01880	-975.45679	-681.57385	813.04883	-1434.35205	-264.36328	964.41364	-1225.32837	-577.18060	1000.93225	-1326.09253				-186.66016	492.02811	-1261.59949										
38	0.370				-652.65472	529.26538	-1280.75952										-536.22473	1656.40393	-1257.39685							-147.18277	1153.23096	-1171.61975				-279.82520	950.84106	-971.37518	-689.18414	812.00427	-1431.04675	-272.33786	964.39020	-1217.91760	-584.06293	1001.97601	-1322.74951				-199.80345	491.19580	-1244.12073										
39	0.380				-655.50885	527.87030	-1279.74219										-543.32703	1657.95923	-1250.53015							-154.20035	1154.39636	-1167.49182				-284.49594	946.97058	-968.30591	-697.50763	816.08850	-1414.58228	-282.42120	966.05414	-1210.17664	-591.97357	1003.64270	-1319.34534				-211.84360	490.29187	-1226.60510										
40	0.390	-436.27679	1639.23987	-1128.01880	-660.02747	528.55768	-1277.45972										-550.40063	1659.55408	-1244.39185							-161.37909	1154.44348	-1161.38354				-289.98230	943.87256	-966.44629	-705.44586	817.70782	-1411.10767	-288.17114	966.75708	-1202.73584	-598.78296	1003.76563	-1315.06299				-224.31448	491.18265	-1209.12219										
41	0.400	-444.38983	1641.35059	-1122.11267	-664.89630	529.14453	-1275.41650										-557.39758	1661.12317	-1237.56421							-168.40974	1155.20996	-1156.90149				-294.78070	940.68958	-964.89954	-714.13812	821.75049	-1396.69910	-297.84573	967.91620	-1197.30811	-606.07312	1005.17340	-1311.73804				-236.74982	492.49304	-1188.64209										
42	0.410	-452.46799	1643.00146	-1115.64502	-667.04242	528.89716	-1275.17639										-564.32397	1662.69604	-1230.76270							-174.95467	1155.72412	-1150.81274				-301.15778	938.91602	-961.32440	-721.75311	823.21338	-1386.43848	-304.21298	970.40863	-1187.75061	-612.15607	1005.93481	-1307.63672				-249.51318	493.97180	-1173.28796										
43	0.420	-460.38678	1644.78198	-1110.06274	-670.22827	528.14441	-1273.38574										-570.92078	1664.41272	-1224.21179							-181.36377	1157.01184	-1147.88269				-305.26001	934.53619	-960.63129	-729.35413	824.52985	-1376.08545	-311.92816	972.28259	-1182.08276	-618.82391	1006.57617	-1303.90344				-264.67841	495.05817	-1155.48926										
44	0.430	-468.08167	1646.65820	-1104.01697	-671.84100	527.79974	-1272.16846										-577.69159	1665.68286	-1217.90979							-187.38864	1157.61938	-1141.66138				-309.22256	931.57635	-959.59564	-739.10138	827.59161	-1365.23694	-320.45981	974.64819	-1172.51343	-625.62122	1008.21381	-1300.51050				-277.49527	498.31012	-1137.89148										
45	0.440	-475.62604	1648.37402	-1097.30847	-673.10278	526.63300	-1270.99182										-584.17145	1667.39319	-1211.36462							-193.64096	1158.11853	-1136.43079				-313.62326	928.56873	-958.32159	-746.06122	830.03625	-1353.70447	-326.59421	977.25757	-1167.07703	-631.73669	1009.10345	-1296.26282				-292.70517	500.43927	-1120.62927										
46	0.450	-482.91840	1650.46899	-1091.15845	-674.61133	526.51434	-1270.36768										-590.50854	1668.83569	-1204.63098							-199.07889	1158.84363	-1130.70239				-318.40625	926.09827	-958.49762	-754.53845	833.00006	-1341.64502	-334.09027	980.07800	-1159.50928	-638.70508	1011.16870	-1292.27502				-307.44739	503.22665	-1102.93005										
